<?xml version="1.0" standalone="no"?>
<!DOCTYPE svg PUBLIC "-//W3C//DTD SVG 20010904//EN"
 "http://www.w3.org/TR/2001/REC-SVG-20010904/DTD/svg10.dtd">
<svg version="1.0" xmlns="http://www.w3.org/2000/svg"
 width="520.000000pt" height="520.000000pt" viewBox="0 0 520.000000 520.000000"
 preserveAspectRatio="xMidYMid meet">
<metadata>
Created by potrace 1.14, written by Peter Selinger 2001-2017
</metadata>
<g transform="translate(0.000000,520.000000) scale(0.100000,-0.100000)"
fill="#000000" stroke="none">
<path d="M0 2600 l0 -2600 2600 0 2600 0 0 2600 0 2600 -2600 0 -2600 0 0
-2600z m3906 1032 c51 -26 130 -111 168 -182 22 -40 30 -71 34 -124 5 -79 4
-79 -96 -326 -66 -161 -76 -171 -130 -125 -17 14 -38 46 -48 70 -26 70 -15
147 46 309 52 141 62 196 41 234 -51 95 -344 -55 -565 -289 -211 -225 -345
-501 -376 -777 -22 -194 25 -362 118 -427 39 -27 51 -30 120 -30 70 0 83 4
151 39 122 65 251 206 353 385 28 47 53 90 57 94 15 15 40 -5 52 -40 52 -158
-111 -412 -332 -519 -145 -71 -345 -73 -477 -5 -176 90 -272 325 -242 596 32
300 178 587 422 832 250 252 540 369 704 285z m-1081 -16 c22 -33 29 -113 16
-175 -23 -110 -51 -166 -305 -615 -59 -104 -105 -189 -104 -190 35 -20 79 -63
92 -91 29 -60 20 -66 -83 -58 l-90 6 -93 -189 c-51 -104 -119 -245 -150 -312
-36 -78 -62 -122 -70 -120 -7 2 -23 24 -35 48 -47 91 -23 233 73 439 24 52 44
97 44 101 0 3 -78 -4 -172 -17 -95 -13 -218 -27 -273 -31 l-100 -7 -42 -85
c-23 -47 -78 -166 -123 -265 -45 -99 -88 -190 -96 -202 -19 -30 -39 -20 -64
31 -42 87 -18 233 70 432 28 62 50 116 50 121 0 4 -15 18 -33 29 -33 22 -70
81 -61 96 3 4 40 8 82 8 l77 0 105 207 c197 389 398 746 452 804 15 18 32 27
41 23 43 -16 56 -174 23 -274 -24 -72 -105 -232 -260 -514 -69 -127 -124 -232
-122 -234 2 -2 95 13 207 32 112 19 234 38 271 42 l68 7 56 111 c130 254 344
637 427 761 73 110 94 124 122 81z m-260 -1531 c30 -29 34 -98 10 -150 -40
-82 -131 -121 -180 -75 -38 36 -42 91 -11 155 45 90 129 123 181 70z"/>
</g>
</svg>
